<svg xmlns="http://www.w3.org/2000/svg" viewBox="0 0 250 250" xml:space="preserve" height="250" width="250"><g transform="matrix(0.625,0,0,0.625,0,0)"><g transform="matrix(1,0,0,1,0,0)"><switch><g><path d="M291.98 291.48v25.09h10.87c-.27-9.28-.53-18.57-.8-27.85l-10.07 2.76zm73.84-122.99c-.55-.43-.97-1.02-1.55-1.45-2.32-1.72-5.21-2.64-8-3.24-1.82-.39-4.64-1.34-6.46-.63-1.89.74-3.19 3.33-4.11 4.98-4.17 7.5-6.63 16.06-9.02 24.25-3.07 10.52-5.63 21.18-8.01 31.88-2.53 11.32-4.88 22.7-6.95 34.12 3.52 1.44 6.72 3.43 9.17 6.25 4.47-12.51 9.18-24.95 13.73-37.43 6.47-17.72 12.94-35.45 19.41-53.17.65-1.77 1.18-3.66 1.96-5.38a.563.563 0 0 0-.17-.18zM246.45 270.41a17.149 17.149 0 0 0-6.32 4.85c2.31-.03 4.63-.06 6.94-.08 1.09-.01 2.18-.03 3.26-.04-.21-1.98-.4-3.97-.59-5.95-1.12.34-2.23.74-3.29 1.22zm84.58.54c-.21-.45-.45-.89-.71-1.31-.24-.4-.5-.78-.78-1.15l-.01-.01c-2.17-2.91-5.14-4.97-8.45-6.46-.37-.17-.74-.33-1.12-.48-.38-.15-.76-.29-1.15-.43-3.01-1.09-6.21-1.8-9.32-2.29-9.58 11.73-25.77 8.9-39.4 8.53 0 2.52-.01 5.04-.01 7.57l39.3-.48c.17 0 .34 0 .51-.01.42-.01.84-.01 1.26-.02.47-.01.93-.01 1.4-.02l19.47-.24c-.01-.05-.01-.11-.02-.16-.17-1.05-.51-2.07-.97-3.04z" fill="#8ECAE6"></path><path d="M270.12 243.18c-.01 6.05-.01 12.11-.02 18.16v2.63c4.56 0 9.12.2 13.67.42 8.37.41 17.11-.65 22.86-5.98.52-.48 1.01-.99 1.48-1.55.42-.49.82-1.02 1.19-1.57a19.94 19.94 0 0 0 2.26-4.5c1.05-2.93 1.55-6.06 1.67-9.17-14.37.53-28.74 1.05-43.11 1.56zm-20.84 21.03c-.57-6.6-.99-13.22-1.13-19.84-1.2.3-2.4.62-3.59.95-7.65 2.11-16.59 4.19-22.49 9.85-9.38 9-10.15 24.11-9.52 36.26.59 11.43 2.78 22.8 5.85 33.81.62 2.22.79 4.95 2.82 6.13 5.55 3.25 11.4 1.86 15.39-2.78-3.53-11.47-5.77-24.19-4.76-36.14.4-4.65 1.52-9.53 3.61-13.84.27-.56.56-1.11.87-1.66.32-.56.66-1.12 1.01-1.66.49-.74 1.03-1.44 1.6-2.12.43-.52.89-1.01 1.36-1.49 1.47-1.47 3.14-2.75 5.07-3.75 1.32-.68 2.69-1.24 4.09-1.69 0-.03-.01-.05-.01-.08-.06-.64-.12-1.29-.17-1.95z" fill="#023047"></path><g fill="#56c8ee"><path d="M319.88 231.23c-4.46-24.12-14.96-57.05-39.28-67.52 1.29 8.91 2.04 17.9 2.63 26.87.89 13.47 1.42 26.98 1.53 40.48.01.92-.67 2.1-1.61 2.35-4.14 1.08-8.54 1.96-13.02 2.51v4c.2-.01.41-.01.61-.02l42.49-1.53c.44-.02.89-.03 1.33-.05.44-.02.89-.03 1.33-.05l5.12-.18c-.31-2.3-.71-4.59-1.13-6.86z"></path><path d="M261.24 207.67c6.74.32 13.67.28 20.21-1.27-.57-14.67-1.52-29.4-3.86-43.85-.01-.05-.02-.1-.02-.15-.1-.59-.19-1.21-.29-1.83-.09-.61-.19-1.24-.29-1.88-.77-4.84-1.84-10.21-4.74-13.82-4.2-5.25-11.34-6.25-17.87-5.03.59 5.77-.06 11.15-.86 15.09.09.01.17.01.26.03 3.22.55 5.09 3.66 5.26 6.73.33 6.01-5.75 13.08-12.04 13.51.23 6.07-.9 12.77-3.97 18.13v12.72c4.73.68 9.5 1.12 14.27 1.41 1.3.08 2.62.15 3.94.21zm20.88 22.9c-.05-4.12-.15-8.24-.27-12.36-.09-2.91-.18-5.82-.28-8.74-6.72 1.72-13.89 1.82-20.85 1.53-1.31-.05-2.62-.12-3.91-.2-4.6-.26-9.2-.67-13.77-1.29v17.56c0 1-.24 2.36 0 3.34.02.08-.01.24-.02.39.35-.24 2.51.41 2.51.41.95.27 1.92.51 2.89.71.09.02.18.03.26.05.66.14 1.33.26 2 .37.04.01.08.01.13.02 2.1.35 4.24.58 6.4.71 3.42.2 6.89.14 10.34-.13.43-.03.87-.07 1.3-.11.43-.04.87-.09 1.3-.13 4.06-.46 8.09-1.19 11.97-2.13z"></path></g><path d="M270.73 296.11c1.8.53 3.62.96 5.48 1.18.65.08 1.31.07 1.97.09-.29-.15-.53-.45-.72-.92-2.15-1.74-4.83-2.61-7.3-3.77-2.65-1.24-2.68-2.52-2.68-5.31 0-3.06.01-6.11.01-9.17v-3.28c0-2.54.01-5.09.01-7.63v-5.61c.01-6.14.01-12.28.02-18.42v-7.07c-3.62.34-7.27.45-10.88.27-2-.1-3.98-.29-5.93-.59-.02 1.54-.02 3.07-.01 4.6.01.56.01 1.13.02 1.69l.03 1.55c.16 6.71.61 13.42 1.2 20.11l.15 1.68c.05.51.09 1.02.14 1.52.05.49.09.97.14 1.46.21 2.2.44 4.41.67 6.61l.18 1.64.18 1.64c.14 1.3.28 2.61.43 3.91.83 7.53 1.99 15.53 7.13 21.48 2.53 2.92 5.95 4.98 9.79 5.58.4.06 2.79.49 3.14.2.39-.33-.38-.39-.87-.65-1.89-1-3.83-1.93-5.74-2.9-1.23-.62.33-3.5 1.52-3.22 1.43.34 2.86.63 4.32.82.73.09 1.46.17 2.19.22.21-.02.38-.04.53-.05-.7-.47-2.32-1.33-2.82-1.7-1.28-.92-2.56-1.85-3.84-2.77-1.06-.74.28-3.56 1.54-3.19zm-14.3-132.98c-.16-2.16-1.53-4.3-3.72-4.83-.06-.01-.12-.03-.18-.05-3.07-.6-5.7 1.75-7.66 4.1-.51.61-.98 1.23-1.4 1.79-.04.05-.07.09-.11.13-.03.04-.06.08-.09.11-.38.42-.72.55-.99.47-.11.02-.23.02-.34.03l-.26.03c-2.31.14-4.7-.68-6.26-2.4-1.5-1.65-2.11-3.89-2.31-6.07-.25-2.62.64-5.19-.14-7.71-1.07-3.48-2.92-5.68-2.78-9.45.06-1.69.4-3.58-.26-5.19-.74-1.81-2.57-2.88-4.25-3.7-3.98-1.94-8.4-1.89-12.11.62-3.5 2.36-6.17 6.14-9.25 9.04-3.49 3.29-9.09 8.49-14.4 7.33-.19.8-.37 1.6-.54 2.4-.78 3.74-1.38 7.53-1.75 11.34-.34 3.47-.49 7.34-.28 11.27.65 12.23 4.79 25 17.79 27.78 9.72 2.08 21.22 2.76 30.21-2.16 2.42-1.32 3.7-2.51 5.07-4.74.24-.4.49-.83.75-1.3.19-.36.38-.71.55-1.08.51-1.06.94-2.15 1.3-3.26 1.39-4.32 1.66-8.94 1.19-13.5-.09-.86.88-2.56 1.92-2.38 4.66.88 10.66-3.82 10.3-8.62zm-40.19-22.66c2.42 4.41 7.13 7.16 12.14 6.94 1.51-.07.16 3.24-1.24 3.3-5.34.24-10.56-2.81-13.14-7.51-.68-1.24 1.51-4.06 2.24-2.73zm-16.72 29.06c-.5 1.46-1.14 2.94-1.93 4.18-1.35 2.11-3.14 3.52-5.49 2.89-1.9-.51-2.69-1.93-2.84-3.71-.15-1.77.33-3.91.98-5.85-.72-1.62-1.16-3.42-1.49-5.07-.28-1.4-.88-3.3-.16-4.65 1.58-2.93 7.02-4.65 9.98-5.46 2.04-.56 4.2-.94 6.32-.96 1.52-.01.19 3.22-1.2 3.3a52 52 0 0 1-.83 5.63c1.37-1.76 2.9-3.41 4.2-4.92 1.57-1.82 2.54.47 1.33 1.88-1.97 2.29-3.97 4.58-5.56 7.16-2.3 3.74 1 5.81 4.25 6.87.78.26.5 1.49-.17 2.35-.44.57-1.06.97-1.64.78-.43-.14-.86-.3-1.28-.49-1.89-.85-3.69-2.16-4.47-3.93zm24.28 20.64c-2-4.65-5.6-9.48-11.04-9.93-5.55-.45-8.93 4.23-9.28 9.33-.09 1.35-2.75 3.53-2.6 1.45.41-5.92 3.62-12.41 9.89-13.86 7.48-1.73 12.9 4.7 15.55 10.85.52 1.25-1.78 3.88-2.52 2.16zm4.87-13.41c-4.52.94-7.69-2.01-9.82-5.6-2.69-4.52-3.72-10.06-3.72-10.06h.01c-.49-2.28-.78-4.61-.97-6.88-1.2-.13-2.4-.2-3.58-.21-1.55-.01-.16-3.31 1.24-3.3 5.39.03 13.45 1.27 17.41 5.25 1.16 1.17.54 2.9.24 4.44-.06.31-.12.62-.19.92 1 1.69 2.25 4.07 3.01 6.46 1.27 3.98 1.18 7.99-3.63 8.98zm23.12-13.93c-1.91 1.33-3.83 2.66-5.74 3.98-.68.47-1.29-.07-1.33-.77-.05-.9.58-1.73 1.28-2.21.38-.26.76-.53 1.14-.79l4.6-3.19c.2-.14.4-.18.57-.17.42.04.73.44.75.93.06.91-.57 1.73-1.27 2.22z" fill="#FFB703"></path><path fill="#F33B2F" d="M145.14 80.04c-10.01-.86-19.14 6.73-19.17 16.97-.02 9.51 7.64 17.61 17.06 18.41 10.15.87 18.95-6.75 19.17-16.97-.21-9.51-7.48-17.59-17.06-18.41z"></path><path fill="#FB8500" d="M232.3 167.79c-.76-2.4-2.02-4.77-3.01-6.46-.51 2.33-1.24 4.67-2.49 6.7-.33.53-.73 1.07-1.18 1.56-1.1 1.19-2.53 2.09-4.2 1.89a3.73 3.73 0 0 1-1.53-.54c-1.4-.86-2.31-2.54-2.94-3.99-.81-1.85-1.38-3.82-1.81-5.84h-.01s1.03 5.53 3.72 10.06c2.13 3.58 5.3 6.53 9.82 5.6 4.81-1 4.9-5.01 3.63-8.98zm-40.8 1.44c-.51-.66-.91-1.41-1.26-2.19-.65 1.95-1.13 4.08-.98 5.85.15 1.78.94 3.2 2.84 3.71 2.35.63 4.14-.78 5.49-2.89.79-1.24 1.43-2.72 1.93-4.18.25-.72.46-1.43.65-2.1-.28.44-.59.87-.92 1.28-2.08 2.53-5.13 3.95-7.75.52z"></path><path d="M145.38 98.74c-.21-3.19-.41-6.39-.62-9.58-.14-2.13-2.69.06-2.6 1.45.21 3.19.41 6.39.62 9.58.14 2.13 2.69-.06 2.6-1.45zm.86 7.45c-.21-.11-.41-.22-.62-.33-.3-.16-.65-.08-.93.07-.37.2-.72.59-.91.95-.21.38-.39.83-.36 1.26.02.31.09.68.4.84.21.11.41.22.62.33.3.16.65.08.93-.07.37-.2.72-.59.91-.95.21-.38.39-.83.36-1.26-.02-.31-.1-.68-.4-.84zm-45.55 23.48 26.19 64.53c1.25 3.07 2.5 6.15 3.74 9.22.08.21.19.35.32.44.15.27.45.33.96-.03 1.86-1.3 3.72-2.61 5.58-3.91.28-.2.61-.52.87-.9h49.6v4.05c0 2.12 2.6-.07 2.6-1.45v-4.98c0-.39-.21-.93-.68-.93h-51.8c-.02 0-.03.01-.05.01l-25.68-61.62c-1.25-3-2.5-5.99-3.75-8.99-.25-.61-.72-.66-1.28-.41-1.81.8-3.61 1.61-5.42 2.41-.72.32-1.54 1.73-1.2 2.56zm5.76-1.59 26.01 62.43c1.07 2.56 2.13 5.11 3.2 7.67-.98.69-1.96 1.37-2.94 2.06-8.59-21.17-17.19-42.34-25.78-63.51-1.02-2.5-2.03-5.01-3.05-7.51.85-.38 1.71-.76 2.56-1.14zm104.71-57.02c4.09 2.07 9.49 1.93 13.92 1.33 3.1-.42 6.17-1.37 8.94-2.86 1.72 2.58 2.42 5.55.88 8.64-1.9 3.85-5.56 7.1-9.65 8.99-.12-.49-.28-.97-.48-1.45-2.67-6.49-13.91-10.46-17.3-2.33-1.49 3.58.91 6.73 4.23 8.01 3.57 1.37 7.64.96 11.21-.29v.24c-.21 4.13-3.94 7.06-7.89 7.27-1.4.08-2.75 3.39-1.24 3.3 6.2-.33 11.59-5.87 11.77-11.94 6.77-3.4 14.73-11.29 12.64-19.21-.28-1.07-.71-2.1-1.27-3.09.37-.28.73-.55 1.08-.85 6.23-5.34 9.4-14.72 5.43-22.29-2.42-4.6-7.01-7.98-11.46-10.46-4.48-2.5-9.77-4.1-14.85-2.61-7.56 2.21-13.3 13.03-5.59 18.67 1.15.84 3.03-2.23 1.81-3.13-2.33-1.71-3.37-4.8-2.47-7.59.98-3.04 4.38-4.61 7.31-5.08 6.07-.96 12.13 2.46 16.8 6 5.01 3.79 8.78 9.24 7.32 15.78-.91 4.09-3.47 7.25-6.78 9.46-4.44-5.67-12.83-9.49-19.23-9.38-3.94.07-7.68 2.11-9.05 5.97-1.28 3.6.62 7.23 3.92 8.9zm8.41 17.75c-3.04.35-7.08.01-9.14-2.59-1.78-2.24.61-3.9 2.79-4.06 1.66-.12 3.25.29 4.71 1.09 1.97 1.08 3.65 2.87 4.46 4.97-.94.27-1.88.48-2.82.59zm-8.06-28.51c1.53-.81 3.35-.87 5.03-.73 3.17.25 6.31 1.36 9.09 2.85 2.19 1.17 4.67 2.88 6.63 4.94-1.19.52-2.43.94-3.69 1.25-5.02 1.23-14.44 2.09-18.05-2.62-1.36-1.76-1.09-4.59.99-5.69z"></path><path d="M148.68 118.15c9.55-2.5 15.92-11.44 16.12-21.14-.19-8.85-5.68-16.83-14.28-19.46-8.48-2.59-17.69.82-22.87 7.9-5.02 6.86-5.76 16.32-1.32 23.67 4.56 7.54 13.84 11.26 22.35 9.03zm-3.54-38.11c9.58.82 16.86 8.89 17.06 18.41-.22 10.22-9.01 17.84-19.17 16.97-9.42-.81-17.08-8.9-17.06-18.41.02-10.23 9.16-17.82 19.17-16.97zm-31.85 23.3c-.46-1.75-2.85.85-2.51 2.15 1.09 4.17 2.18 8.35 3.28 12.52.46 1.75 2.85-.85 2.51-2.15-1.09-4.17-2.18-8.35-3.28-12.52zm50.5 17.29-9.42 8.88c-.55.52-1.21 1.54-.9 2.33.29.75 1.08.68 1.61.18l9.42-8.88c.55-.52 1.21-1.54.9-2.33-.3-.74-1.08-.68-1.61-.18zm9.24 10.26c-2.04 1.29-4.07 2.58-6.11 3.87-.71.45-1.32 1.33-1.28 2.21.04.73.64 1.2 1.33.77 2.04-1.29 4.07-2.58 6.11-3.87.71-.45 1.32-1.33 1.28-2.21-.04-.73-.64-1.21-1.33-.77zm-71.3-31.05c-.77-1.71-3.07.92-2.51 2.15 1 2.2 1.99 4.39 2.99 6.59.77 1.71 3.07-.92 2.51-2.15-1-2.2-1.99-4.4-2.99-6.59zm170.51 127.59c2.95-.4 4.46-3.59 4.67-6.26.02-.1.03-.19.02-.28 0-.11 0-.2-.02-.29-.22-2.46-1.77-5.32-4.67-4.8-2.86.52-4.55 3.85-4.53 6.53.01 2.48 1.65 5.49 4.53 5.1zm-1.94-6.55c.03-1.3.88-2.22 2.22-1.68 1.24.5 1.74 1.91 1.8 3.13-.06 1.29-.85 2.23-2.22 1.68-1.18-.48-1.82-1.93-1.8-3.13zm-59.54-43.72c-6.26 1.45-9.48 7.94-9.89 13.86-.14 2.08 2.51-.1 2.6-1.45.35-5.1 3.73-9.78 9.28-9.33 5.44.44 9.04 5.28 11.04 9.93.74 1.72 3.04-.91 2.51-2.15-2.64-6.16-8.06-12.59-15.54-10.86zm-5.47-3.22c.58.19 1.19-.21 1.64-.78.66-.85.95-2.09.17-2.35-3.25-1.07-6.56-3.13-4.25-6.87 1.59-2.58 3.58-4.87 5.56-7.16 1.21-1.41.24-3.7-1.33-1.88-1.3 1.51-2.82 3.16-4.2 4.92.39-1.86.65-3.76.83-5.63 1.39-.08 2.72-3.31 1.2-3.3-2.12.02-4.28.4-6.32.96-2.97.81-8.4 2.53-9.98 5.46-.73 1.35-.13 3.25.16 4.65.33 1.65.77 3.45 1.49 5.07.35.78.76 1.53 1.26 2.19 2.62 3.43 5.67 2 7.75-.53.33-.4.64-.83.92-1.28-.18.67-.4 1.38-.65 2.1.77 1.77 2.58 3.08 4.49 3.92.4.2.83.37 1.26.51zm-4.08-19.49c-.11 1.37-.45 3.69-.78 5.37-.16.81-.34 1.94-.62 3.1-.47 1.95-1.2 3.99-2.54 4.78-.84.5-1.59.49-2.25.16.11-2.49-.07-4.49-.38-6.08-.45-2.28-1.19-3.74-1.79-4.6 2.57-1.43 5.46-2.41 8.38-2.79-.01.01-.02.04-.02.06z"></path><path d="M387.32 351.79h-45.46c.86-.74 1.59-1.63 2.14-2.6.08-.13.13-.26.18-.39.01-.02.02-.03.02-.05 1.53-3.39.97-8.09-2.89-9.62-2.06-.81-4.16-.35-5.88.79-.02-.18-.06-.35-.16-.5-2.49-3.82-4.79-7.97-7.79-11.42-5.52-6.35-13.55-10.22-21.97-10.52l-.87-30.43H312c1.03 0 2.06-1.38 1.92-2.38-.31-2.34-.63-4.68-.94-7.02l7.29-.09 12.51-.15c.96-.01 1.76-1.09 1.89-1.97.42-2.95-.58-6.1-2.15-8.61 4.19-11.47 8.38-22.95 12.57-34.42 6.91-18.94 13.83-37.88 20.74-56.82.78-2.14 1.56-4.29 2.35-6.43.44-1.2.77-2.1-.01-3.26-2.68-4.02-9.1-5.29-13.44-5.92-3.26-.47-5.18-.26-7.48 2.17-4.98 5.25-7.43 13.27-9.7 19.95-3.53 10.4-6.29 21.07-8.85 31.74-1.79 7.47-3.52 14.98-5.13 22.51-1.04-8.25-2.93-16.46-5.25-24.41-4.56-15.64-11.47-31.86-23.63-43.14-4.34-4.02-9.3-7.14-14.72-9.16-.88-5.76-1.83-12.96-5.5-17.53-4.88-6.08-13.14-6.98-20.53-5.32-.73-4.03-2.13-8.15-4.58-12.02-10.18-16.09-8.56-7.54-25.32-13.32-16.76-5.78-31.81-4.88-34.82 4.3-3.01 9.18 5.42 18.21-6.62 22.43-11.46 4.01-15.68 25.73 1.78 33.14.12 5.91 1.01 11.71 3.02 17.01 2.78 7.33 8.29 13.32 16.1 15.05 10.29 2.27 22.37 2.8 31.88-2.41 1.95-1.07 3.61-2.44 5.02-4.04v11.13c-.02.17-.03.34 0 .49v23.93c0 .25.11.73.4.84 2.36.9 4.81 1.58 7.33 2.08-.04 1.91-.06 3.81-.05 5.72-6.23 1.62-12.35 3.59-18.25 6.05-24.36 10.15-21.46 44.02-17.49 65.05.91 4.82 2.02 9.61 3.31 14.34.25.92.46 1.98.72 3.04-.81-.05-1.61-.06-2.28-.13-7.87-.78-17.6-2.13-25.19.77-6.05 2.32-9.66 8.97-11.01 15.2h-.09c-1.12 0-1.92 1.37-1.92 2.38v4.82c0 .39.21.93.68.93h67.43c.67 0 1.33-.75 1.68-1.54.15-.28.25-.57.25-.83v-4.7c.7-5.49 1.39-12.53-1.15-17.58-1.08-2.15-3.47-3.85-5.74-2.73-.03-.09-.05-.18-.08-.28-1.86-6.42-3.25-13.02-4.06-19.66-1.01-8.33-1.29-17.13 1.83-25.07.36-.91.76-1.78 1.2-2.61l12.76-.15.45 4.24c.52 4.81 1.02 9.69 2.5 14.32 2.5 7.84 8.23 15.02 16.94 15.82 2.67.24 6.89.07 7.03-3.57.04-.93-.3-1.6-.89-2.2.97-.32 1.77-.91 2.25-1.9.64-1.33.4-2.48-.57-3.54-.23-.25-.48-.49-.74-.73.61-.06 1.19-.2 1.72-.42 1.54-.65 2.72-2.51 2.28-4.2-.62-2.41-3.88-4.03-5.89-4.99-1.4-.67-3.41-1.11-4.63-2.07-1.74-1.37-1.05-4.84-1.05-6.78v-4.21l12.07-.15v8.09c0 .39.21.93.68.93h6.67c-.08.2-.13.39-.13.58v30.05c-5.74.63-11.27 2.2-16.2 5.76-5.62 4.06-8.82 9.55-11.74 15.56-3.48-1.09-7 1.32-8.54 4.4-1.61 3.21-1.24 7.81 2.28 9.61 3.67 1.87 7.53-.62 9.35-3.82.08-.13.13-.26.18-.39.01-.02.02-.03.02-.05 1.31-2.88 1.08-6.72-1.4-8.74 2.48-5.18 5.11-9.96 9.86-13.55 5.37-4.06 11.74-5.69 18.38-5.69 1.72 0 3.44-.01 5.16-.02v16.6c-2.07 1.04-3.8 3.05-4.76 4.96-1.64 3.26-2.12 8.7 1.73 10.69 3.99 2.06 8.08-1.66 9.9-4.9.08-.13.13-.26.18-.39.01-.02.02-.03.03-.05 1.57-3.42 1.95-9.09-2.38-10.71-.71-.26-1.41-.36-2.1-.33v-15.88c1.31 0 2.61 0 3.92.02 8.23.1 16.16 3.45 21.69 9.63 3.14 3.51 5.51 7.82 8.08 11.76.01.02.03.03.05.05-.27.38-.51.78-.71 1.18-1.32 2.63-1.31 6.2.68 8.39h-17.98c-1.41 0-2.79 3.3-1.24 3.3h72.25c1.42.02 2.81-3.29 1.26-3.29zm-124.74-3.55c-2.79 4.56-10.2.51-7.53-4.22 1.13-2.01 3.82-2.49 5.75-1.39 2.04 1.17 2.57 3.55 1.78 5.61zm69.57-72.13.03-.03c-.01.12-.04.15-.03.03zm-3.47-51.83c2.39-10.69 4.95-21.36 8.01-31.88 2.39-8.19 4.85-16.75 9.02-24.25.92-1.66 2.22-4.25 4.11-4.98 1.82-.71 4.63.24 6.46.63 2.79.6 5.68 1.51 8 3.24.58.43 1 1.02 1.55 1.45.08.06.13.12.18.18-.78 1.72-1.31 3.61-1.96 5.38-6.47 17.72-12.94 35.45-19.41 53.17-4.56 12.48-9.26 24.92-13.73 37.43-2.44-2.82-5.65-4.81-9.17-6.25 2.07-11.42 4.42-22.79 6.94-34.12zm-6.1 16.86c-1.13 5.46-2.19 10.93-3.16 16.41-2.53-.84-5.16-1.44-7.75-1.88 2.49-4.24 3.8-9.18 4.13-14.13 2.05-.07 4.1-.15 6.16-.22.22-.01.42-.08.62-.18zm-27.45 1.47c.08-.12.14-.23.2-.34 5.97-.22 11.94-.43 17.91-.65-.12 3.11-.62 6.24-1.67 9.17-.61 1.69-1.37 3.18-2.26 4.5a18.132 18.132 0 0 1-2.67 3.12c-5.76 5.33-14.49 6.39-22.86 5.98-4.54-.22-9.11-.41-13.67-.42v-2.63c.01-6.05.01-12.11.02-18.16l4.26-.15c.02.15.05.28.12.41 4.83 8.42 15.81 6.39 20.62-.83zm-16.7.27 14.09-.51c-.38.4-.76.79-1.19 1.15-2.05 1.67-4.63 2.59-7.28 2.23-2.12-.29-4.1-1.35-5.62-2.87zm41.45-11.65c.42 2.27.82 4.56 1.13 6.86l-5.12.18c-.44.02-.89.03-1.33.05-.44.02-.89.03-1.33.05l-42.49 1.53c-.2.01-.41.01-.61.02v-4c4.48-.55 8.87-1.43 13.02-2.51.94-.24 1.62-1.43 1.61-2.35-.11-13.5-.64-27.01-1.53-40.48-.59-8.98-1.34-17.97-2.63-26.87 24.31 10.47 34.82 43.39 39.28 67.52zm-65.5-91.39c6.53-1.22 13.66-.21 17.87 5.03 2.89 3.61 3.96 8.98 4.74 13.82.1.64.2 1.26.29 1.88.1.63.19 1.24.29 1.83.01.05.02.1.02.15 2.35 14.45 3.29 29.18 3.86 43.85-6.54 1.55-13.47 1.58-20.21 1.27-1.32-.06-2.64-.14-3.94-.22-4.77-.29-9.54-.73-14.27-1.41v-12.72c3.07-5.35 4.2-12.06 3.97-18.13 6.29-.44 12.37-7.51 12.04-13.51-.17-3.07-2.04-6.18-5.26-6.73-.09-.01-.17-.01-.26-.03.8-3.93 1.45-9.31.86-15.08zM241.17 192c-.26.47-.5.9-.75 1.3-1.37 2.23-2.66 3.42-5.07 4.74-8.99 4.92-20.49 4.24-30.21 2.16-13-2.78-17.14-15.55-17.79-27.78-.21-3.93-.06-7.8.28-11.27a103.156 103.156 0 0 1 2.29-13.74c5.31 1.16 10.91-4.05 14.4-7.33 3.07-2.9 5.75-6.68 9.25-9.04 3.72-2.51 8.13-2.55 12.11-.62 1.68.82 3.51 1.89 4.25 3.7.66 1.61.33 3.5.26 5.19-.14 3.76 1.71 5.97 2.78 9.45.78 2.52-.11 5.09.14 7.71.2 2.17.81 4.42 2.31 6.07 1.57 1.72 3.96 2.53 6.26 2.4l.26-.03.34-.03c.27.08.61-.05.99-.47.03-.03.06-.07.09-.11.04-.05.07-.08.11-.13.42-.56.89-1.17 1.4-1.79 1.96-2.34 4.59-4.69 7.66-4.1.06.01.12.03.18.05 2.18.53 3.55 2.66 3.72 4.83.36 4.8-5.64 9.5-10.28 8.66-1.04-.19-2.01 1.52-1.92 2.38.46 4.56.2 9.18-1.19 13.5-.36 1.11-.79 2.2-1.3 3.26-.19.32-.37.68-.57 1.04zm2.15 158.29H178.5v-1.51h64.82v1.51zm-4.73-20.61c.55-.57 1.1-.74 2.18-.1 3.06 1.79 2.97 7.16 3 10.23.02 1.89-.04 3.78-.21 5.67H180.3c1.05-5.27 3.92-10.81 9.31-12.39 7.25-2.12 15.85-1.01 23.24-.27 1.22.12 2.45.26 3.67.4.36.04 1.3.31 1.42.23.22.27.48.53.77.77.15.16.29.32.45.44 1.22.99 2.65 1.69 4.18 2.07 3.82.95 8.22-.2 11.27-2.63 1.15-.91 2.06-2.01 2.95-3.15.38-.41.73-.83 1.03-1.27zm-1.25-54.38a25.3 25.3 0 0 0-1.01 1.66c-.31.54-.6 1.09-.87 1.66-2.09 4.31-3.22 9.19-3.61 13.84-1.01 11.95 1.23 24.67 4.76 36.14-3.99 4.64-9.84 6.04-15.39 2.78-2.02-1.19-2.2-3.92-2.82-6.13-3.07-11.01-5.26-22.38-5.85-33.81-.63-12.15.14-27.26 9.52-36.26 5.9-5.66 14.84-7.74 22.49-9.85 1.19-.33 2.39-.65 3.59-.95.14 6.62.56 13.24 1.13 19.84.06.65.11 1.31.17 1.97 0 .03.01.05.01.08-1.4.45-2.78 1-4.09 1.69-1.92 1-3.6 2.28-5.07 3.75-.45.5-.91.99-1.36 1.49-.57.66-1.11 1.36-1.6 2.1zm9.73-.12c-2.31.03-4.63.06-6.94.08 1.67-2.03 3.74-3.69 6.32-4.85 1.07-.48 2.17-.88 3.29-1.22.19 1.98.38 3.97.59 5.95-1.09.02-2.18.03-3.26.04zm23.08 17.52c2.47 1.16 5.15 2.03 7.3 3.77.19.46.43.77.72.92-.65-.03-1.32-.02-1.97-.09-1.87-.22-3.68-.65-5.48-1.18-1.25-.37-2.59 2.44-1.52 3.22 1.28.92 2.56 1.85 3.84 2.77.5.36 2.12 1.23 2.82 1.7-.15.01-.32.03-.53.05-.73-.05-1.46-.12-2.19-.22-1.46-.19-2.89-.48-4.32-.82-1.19-.28-2.75 2.6-1.52 3.22 1.91.97 3.85 1.89 5.74 2.9.49.26 1.26.32.87.65-.35.29-2.73-.13-3.14-.2-3.84-.6-7.27-2.66-9.79-5.58-5.14-5.94-6.3-13.94-7.13-21.48-.14-1.3-.29-2.61-.43-3.91l-.18-1.64-.18-1.64c-.23-2.2-.46-4.41-.67-6.61-.05-.49-.09-.97-.14-1.46-.05-.51-.09-1.02-.14-1.52l-.15-1.68c-.59-6.69-1.04-13.4-1.2-20.11l-.03-1.55c-.01-.56-.02-1.13-.02-1.69-.02-1.53-.01-3.07.01-4.6 1.95.29 3.94.49 5.93.59 3.61.18 7.26.07 10.88-.27v7.07c-.01 6.14-.01 12.28-.02 18.42v5.61c0 2.54-.01 5.09-.01 7.63v3.28c0 3.06-.01 6.11-.01 9.17-.02 2.77.01 4.04 2.66 5.28zm-1.32-59.88c-.43.04-.87.08-1.3.11-3.45.27-6.92.34-10.34.13-2.16-.13-4.3-.36-6.4-.71-.04-.01-.08-.01-.13-.02-.67-.11-1.34-.24-2-.37-.09-.02-.18-.03-.26-.05-.97-.2-1.94-.44-2.89-.71 0 0-2.16-.65-2.51-.41.01-.15.04-.31.02-.39-.24-.98 0-2.33 0-3.34V209.5c4.57.61 9.17 1.02 13.77 1.29 1.29.07 2.6.14 3.91.2 6.96.29 14.13.19 20.85-1.53.1 2.92.2 5.83.28 8.74.12 4.12.22 8.24.27 12.36-3.88.94-7.91 1.67-11.99 2.12-.41.05-.84.1-1.28.14zm31.61 107.67c2.35 1.43 2.15 4.43 1.23 6.66-1.2 2.05-3.69 3.99-6.15 2.74-2.5-1.27-2.61-4.7-1.42-6.9 1.17-2.17 3.94-3.96 6.34-2.5zm-8.46-23.91v-25.09l10.08-2.76c.27 9.28.53 18.57.8 27.85h-10.88zm-21.89-41.67c0-2.52.01-5.04.01-7.57 13.63.37 29.82 3.2 39.4-8.53 3.11.49 6.31 1.2 9.32 2.29.39.14.77.28 1.15.43.38.15.75.32 1.12.48 3.32 1.5 6.28 3.56 8.45 6.46l.01.01c.28.37.53.76.78 1.15.26.42.49.86.71 1.31.46.97.8 1.99.98 3.05.01.05.01.11.02.16l-19.47.24c-.47.01-.93.01-1.4.02-.42.01-.84.01-1.26.02-.17 0-.34 0-.51.01-13.11.15-26.21.31-39.31.47zm64.42 69.11c1.13-2.01 3.82-2.49 5.75-1.39 2.05 1.17 2.57 3.54 1.79 5.61-2.79 4.56-10.21.51-7.54-4.22z"></path><path d="M227.14 150.71c1.4-.06 2.75-3.37 1.24-3.3-5.01.22-9.72-2.53-12.14-6.94-.73-1.33-2.92 1.49-2.24 2.73 2.58 4.7 7.8 7.74 13.14 7.51zm-15.31.01c-1.41-.01-2.79 3.3-1.24 3.3 1.18.01 2.38.08 3.58.21.19 2.27.48 4.6.97 6.88.43 2.02 1.01 3.99 1.81 5.84.64 1.45 1.54 3.14 2.94 3.99.46.28.96.47 1.53.54 1.67.2 3.1-.7 4.2-1.89.45-.49.85-1.03 1.18-1.56 1.25-2.03 1.98-4.37 2.49-6.7.07-.31.13-.62.19-.92.3-1.54.92-3.27-.24-4.44-3.96-3.98-12.02-5.22-17.41-5.25zm15.46 8.3c-.53 3.65-2.52 12.2-6.36 8.11.22-2.82.06-5.11-.32-6.96-.49-2.41-1.31-4.07-2.06-5.15 3.15.8 6.17 2.1 8.74 3.99v.01zm18.76 7.79c1.91-1.33 3.83-2.66 5.74-3.98.7-.49 1.32-1.31 1.28-2.21-.03-.49-.34-.89-.75-.93-.18-.02-.37.03-.57.17l-4.6 3.19c-.38.26-.76.53-1.14.79-.7.49-1.32 1.31-1.28 2.21.03.7.65 1.24 1.32.76z"></path><path fill="#FB8500" d="M45.15 228.61v129.81h7.63v-132.6h-7.63v2.79zm152.91 0v129.81h7.63v-132.3h-7.63v2.49zM93.42 204.6c-20.3-.2-40.61-.39-60.91-.59v13.53h183.4v-11.75c-7.45-.07-14.89-.14-22.34-.22-33.37-.32-66.76-.65-100.15-.97z"></path><path d="M253.67 358.42H208.3V220.85h8.31c.67 0 1.33-.75 1.68-1.54.15-.28.25-.57.25-.83v-15.05c0-.39-.21-.92-.68-.93-20.95-.2-41.89-.41-62.84-.61-33.39-.32-66.78-.65-100.17-.97-7.67-.07-15.34-.15-23.02-.22-1.12-.01-1.92 1.38-1.92 2.38v16.86c0 .39.21.93.68.93h11.96v137.57H13.47c-1.41 0-2.79 3.3-1.24 3.3h57.78c1.41 0 2.79-3.3 1.24-3.3H55.38V220.87h140.08v137.57h-14.03c-1.41 0-2.79 3.3-1.24 3.3h72.24c1.4-.02 2.78-3.32 1.24-3.32zM52.78 261.86v96.56h-7.63v-132.6h7.63v36.04zm152.91 0v96.56h-7.63v-132.3h7.63v35.74zm0-44.32H32.52v-13.53c20.3.2 40.61.39 60.91.59 33.39.32 66.78.65 100.17.97 7.45.07 14.89.14 22.34.22v11.75h-10.25z"></path><path d="M168.18 358.42h-14.45c-1.41 0-2.79 3.3-1.24 3.3h14.45c1.41 0 2.79-3.3 1.24-3.3z"></path></g></switch></g></g></svg>